<?xml version="1.0" standalone="no"?>
<!DOCTYPE svg PUBLIC "-//W3C//DTD SVG 20010904//EN"
 "http://www.w3.org/TR/2001/REC-SVG-20010904/DTD/svg10.dtd">
<svg version="1.0" xmlns="http://www.w3.org/2000/svg"
 width="399.000000pt" height="399.000000pt" viewBox="0 0 399.000000 399.000000"
 preserveAspectRatio="xMidYMid meet">
<metadata>
Created by potrace 1.14, written by Peter Selinger 2001-2017
</metadata>
<g transform="translate(0.000000,399.000000) scale(0.100000,-0.100000)"
fill="#000000" stroke="none">
<path d="M1609 2959 c-47 -7 -118 -33 -159 -58 -36 -22 -116 -108 -135 -145
-9 -17 -25 -47 -36 -66 -122 -206 -279 -482 -279 -490 0 -6 -3 -10 -8 -10 -4
0 -19 -28 -32 -62 -20 -50 -25 -81 -25 -148 0 -91 14 -129 97 -271 18 -30 94
-160 168 -288 74 -128 150 -251 169 -273 40 -47 91 -80 163 -108 50 -19 77
-20 460 -20 451 0 476 3 569 67 61 43 80 65 139 168 29 50 60 104 70 120 10
17 42 73 72 125 30 52 79 136 108 185 106 178 114 199 114 300 0 96 -2 110
-27 166 -12 28 -111 201 -187 329 -5 8 -32 56 -61 105 -153 263 -183 299 -284
345 -67 31 -56 31 -551 33 -165 1 -321 -1 -345 -4z m501 -391 c19 -5 42 -12
50 -15 8 -4 17 -7 20 -8 24 -6 98 -53 130 -82 99 -89 156 -210 159 -338 5
-205 -133 -446 -391 -683 -26 -24 -58 -45 -72 -46 -52 -6 -255 194 -352 347
-130 203 -156 401 -75 572 76 162 244 267 421 263 41 0 91 -5 110 -10z"/>
<path d="M1917 2454 c-70 -17 -101 -33 -148 -76 -170 -158 -156 -393 41 -653
8 -11 54 -60 101 -108 l86 -88 73 73 c132 133 227 279 263 403 23 80 16 189
-15 255 -74 156 -234 233 -401 194z m187 -172 c17 -10 44 -37 60 -60 37 -52
41 -135 10 -196 -56 -111 -215 -139 -306 -53 -108 102 -74 274 64 325 57 21
117 16 172 -16z"/>
<path d="M1951 2174 c-57 -47 -25 -134 49 -134 30 0 43 6 60 27 58 74 -37 168
-109 107z"/>
</g>
</svg>
